<?xml version="1.0" encoding="UTF-8"?><svg id="Layer_2" xmlns="http://www.w3.org/2000/svg" viewBox="0 0 30.5 29.13"><defs><style>.cls-1{fill:#00e89f;}.cls-2{fill:#23013a;}</style></defs><g id="Layer_1-2"><g><rect class="cls-2" width="30.5" height="29.13" rx="4.92" ry="4.92"/><path class="cls-1" d="m23.74,25.9h1.46l-6.56-8.75s-.04-.06-.06-.09h0s-.09-.11-.09-.11c.25-.29.77-.79,1.32-1.32.36-.34.76-.74,1.21-1.18l.12-.12c1.53-1.5,3.83-3.78,3.66-6.1-.08-1.02-.63-1.92-1.64-2.65-1.74-1.27-4.04-1.28-6.07-1.29-.38,0-.74,0-1.09-.01-2.82-.08-5.37.02-7.8.3-.99.11-1.73.95-1.73,1.94,0,3.19,0,6.43,0,9.56,0,1.32,0,2.65,0,3.97v.99c0,.24.15.46.38.55.23.09.48.02.64-.16l6.89-7.87c.05.06.09.12.14.19.35.45.81,1.05,1.27,1.65.46.59.91,1.18,1.26,1.63l-3.37,3.9c-.17.2-.19.5-.04.72l3,4.27h1.42l-3.21-4.56,2.91-3.37c1.11,1.48,4.09,5.44,5.96,7.94Zm-8.58-13.25l1.62-1.85c.15-.17.19-.42.09-.63-.09-.21-.3-.34-.53-.34h-5.28c-.32,0-.58.26-.58.58s.26.58.58.58h3.99l-1.08,1.24s0,0,0,0c0,0,0,0,0,0l-6.34,7.24c0-1.14,0-2.27,0-3.41,0-3.13,0-6.37,0-9.56,0-.4.3-.73.69-.78,1.85-.21,3.77-.32,5.83-.32.59,0,1.19,0,1.81.03.36.01.73.01,1.12.01,1.94.01,3.95.02,5.39,1.07.73.53,1.12,1.12,1.17,1.8.13,1.78-2.02,3.91-3.31,5.18l-.12.12c-.44.44-.85.83-1.2,1.17-.52.51-.95.91-1.23,1.22-1-1.29-2.1-2.71-2.6-3.36Z"/></g></g></svg>